<svg xmlns="http://www.w3.org/2000/svg" xmlns:xlink="http://www.w3.org/1999/xlink" width="68" height="69.5" viewBox="0 0 68 69.5" fill="none"><defs><rect id="path_0" x="0" y="0" width="68" height="69.5" /><linearGradient id="linear_0" x1="50%" y1="100%" x2="49.999999999999986%" y2="-5.551115123125781e-15%" gradientUnits="objectBoundingBox"><stop offset="0" stop-color="#B88D63" stop-opacity="1" /><stop offset="1" stop-color="#FCBA77" stop-opacity="0.54" /></linearGradient></defs><g opacity="1" transform="translate(0 0)  rotate(0 34 34.75)"><mask id="bg-mask-0" fill="white"><use xlink:href="#path_0"></use></mask><g mask="url(#bg-mask-0)" ><path id="路径 1" fill-rule="evenodd" fill="url(#linear_0)" transform="translate(0 0)  rotate(0 34.000000000000014 34.75)" opacity="1" d="M23.5 8L30 13.5L38.5 13.5L44 8L57.5 18L61.5 13.5L33.5 0L6 13.5L10.5 18L23.5 8ZM33.5 65.5L63.5 42.5L55.5 35.5L63.5 25.5L68 25.5L68 42.5L51.5 65.5L33.5 69.5L14.5 65.5L0 42.5L0 25.5L3.5 25.5L12 35.5L3.5 42.5L33.5 65.5Z" /><path id="文本 1" fill-rule="evenodd" style="fill:#D6A97C" transform="translate(18.988 23.088)  rotate(0 14.975999999999999 12.581999999999997)" opacity="1" d="M17.46 4.32C17.64 3.82 17.39 3.49 16.88 3.49L12.85 3.49C12.17 3.49 11.77 3.1 11.77 2.41L11.77 1.08C11.77 0.4 12.17 0 12.85 0L28.87 0C29.56 0 29.95 0.4 29.95 1.08L29.95 2.41C29.95 3.1 29.56 3.49 28.87 3.49L23.62 3.49C23.22 3.49 22.93 3.71 22.82 4.1L22.79 4.25C22.61 4.75 22.86 5.08 23.36 5.08L28.12 5.08C28.8 5.08 29.2 5.47 29.2 6.16L29.2 17.17C29.2 17.86 28.8 18.25 28.12 18.25L25.88 18.25C25.34 18.25 24.98 18.11 24.7 17.82C24.41 17.53 24.26 17.17 24.26 16.63L24.26 9C24.26 8.53 24.01 8.28 23.54 8.28L17.39 8.28C16.92 8.28 16.67 8.53 16.67 9L16.67 16.63C16.67 17.17 16.56 17.53 16.27 17.82C15.98 18.11 15.59 18.25 15.05 18.25L12.82 18.25C12.13 18.25 11.74 17.86 11.74 17.17L11.74 6.16C11.74 5.47 12.13 5.08 12.82 5.08L16.63 5.08C17.03 5.08 17.32 4.86 17.42 4.46L17.46 4.32ZM2.56 4.39L2.56 21.64C2.56 22 2.45 22.25 2.23 22.54L1.15 23.83C0.58 24.55 0.86 25.16 1.76 25.16L5.83 25.16C7.2 25.16 8.71 24.08 8.71 22.64L8.71 4.39C8.71 3.92 8.96 3.67 9.43 3.67L9.86 3.67C10.55 3.67 10.94 3.28 10.94 2.59L10.94 1.33C10.94 0.65 10.55 0.25 9.86 0.25L1.08 0.25C0.4 0.25 0 0.65 0 1.33L0 2.59C0 3.28 0.4 3.67 1.08 3.67L1.84 3.67C2.3 3.67 2.56 3.92 2.56 4.39ZM23.04 10.94L23.04 16.56C23.04 16.92 23.15 17.21 23.36 17.46L28.87 23.83C29.48 24.52 29.2 25.16 28.26 25.16L24.16 25.16C23.58 25.16 23.15 24.95 22.86 24.44L20.92 21.38C20.63 20.95 20.23 20.88 19.91 21.35L17.64 24.52C17.32 24.98 16.88 25.16 16.31 25.16L12.67 25.16C11.74 25.16 11.45 24.52 12.06 23.83L17.57 17.46C17.78 17.21 17.89 16.92 17.89 16.56L17.89 10.94C17.89 10.26 18.29 9.86 18.97 9.86L21.96 9.86C22.64 9.86 23.04 10.26 23.04 10.94Z" /></g></g></svg>