<svg xmlns="http://www.w3.org/2000/svg" xmlns:xlink="http://www.w3.org/1999/xlink" width="910" height="410" viewBox="0 0 910 410" fill="none"><defs><rect id="path_0" x="0" y="0" width="900" height="400" /></defs><g opacity="1" transform="translate(5 5)  rotate(0 450 200)"> fill="#FFFFFF" opacity="1" transform="translate(0 0)  rotate(0 450 200)" stroke="#000000" stroke-width="10" stroke-opacity="1"<rect fill="#FFFFFF" opacity="1" transform="translate(0 0)  rotate(0 450 200)" stroke="#000000" stroke-width="10" stroke-opacity="1" x="0" y="0" width="900" height="400" rx="37" /><mask id="bg-mask-0" fill="white"><use xlink:href="#path_0"></use></mask><g mask="url(#bg-mask-0)" ><g opacity="1" transform="translate(85 95)  rotate(0 105 105)"><path id="路径 1" fill-rule="evenodd" style="fill:#000000" transform="translate(0 0)  rotate(0 105 25)" opacity="1" d="M0,50L210,50L210,0L0,0L0,50Z " /><path id="路径 2" fill-rule="evenodd" style="fill:#000000" transform="translate(80 50)  rotate(0 25 80)" opacity="1" d="M0,160L50,160L48.28,0L0,0L0,160Z " /></g><g opacity="1" transform="translate(345 95)  rotate(0 105 104.99999999999997)"><path id="路径 3" fill-rule="evenodd" style="fill:#000000" transform="translate(0 0)  rotate(0 65 80)" opacity="1" d="M80,160L130,160L50,0L0,0L80,160Z " /><path id="路径 3" fill-rule="evenodd" style="fill:#000000" transform="translate(0 0)  rotate(0 25 104.99999999999997)" opacity="1" d="M50,210L50,0L0,0L0,210L50,210Z " /><path id="路径 3" fill-rule="evenodd" style="fill:#000000" transform="translate(160 0)  rotate(0 25 104.99999999999997)" opacity="1" d="M50,210L50,0L0,0L0,210L50,210Z " /><path id="路径 3" fill-rule="evenodd" style="fill:#000000" transform="translate(80 0)  rotate(0 65 80)" opacity="1" d="M80,0L0,160L50,160L130,0L80,0Z " /></g><g opacity="1" transform="translate(605 95)  rotate(0 105 105)"><path id="路径 3" fill-rule="evenodd" style="fill:#000000" transform="translate(7.105427357601002e-15 0)  rotate(0 24.999999999999996 105)" opacity="1" d="M50,210L50,0L0,0L0,210L50,210Z " /><path id="减去顶层" fill-rule="evenodd" style="fill:#000000" transform="translate(0 0)  rotate(0 105 105)" opacity="1" d="M0 105C0 47.01 47.01 0 105 0C162.99 0 210 47.01 210 105C210 162.99 162.99 210 105 210C47.01 210 0 162.99 0 105Z M69.9573 42.5203C81.6003 46.1202 94.1473 49.9997 105.004 49.9997C135.374 49.9997 160.004 74.6197 160.004 105C160.004 135.38 135.374 160 105.004 160C100.544 160 93.8039 162.005 86.1031 164.296C66.8636 170.019 41.6301 177.525 31.0035 160C20.3535 142.439 25.7918 97.0821 29.0907 69.5689C30.1594 60.6563 31.0035 53.6161 31.0035 49.9997C31.0035 30.476 49.0186 36.0461 69.9573 42.5203Z " /><path id="路径 4" fill-rule="evenodd" style="fill:#000000" transform="translate(7.105427357601002e-15 0)  rotate(0 52.50000000000001 25)" opacity="1" d="M0,50L105,50L105,0L0,0L0,50Z " /><path id="路径 4" fill-rule="evenodd" style="fill:#000000" transform="translate(0 160)  rotate(0 52.50000000000001 25)" opacity="1" d="M0,50L105,50L105,0L0,0L0,50Z " /></g></g></g></svg>